<?xml version="1.0" encoding="UTF-8"?>
<svg width="130px" height="404px" viewBox="0 0 130 404" version="1.1" xmlns="http://www.w3.org/2000/svg" xmlns:xlink="http://www.w3.org/1999/xlink">
    <title>Group</title>
    <g id="Page-1" stroke="none" stroke-width="1" fill="none" fill-rule="evenodd">
        <g id="App%20Icon%20Template" transform="translate(-447, -457)" fill="#FFFFFF">
            <g id="Group" transform="translate(0, 0)">
                <g id="App-Icon-(w/-Shadow)" transform="translate(100, 29.7235)">
                    <g id="Clipped" transform="translate(0, 70.2715)">
                        <g id="Group" transform="translate(93, 95)">
                            <g transform="translate(254.1399, 261.9984)">
                                <path d="M64.910189,136.498978 C76.7157873,136.498978 82.6185864,136.498978 87.5696562,138.099902 C95.2905274,140.596438 101.821145,145.849719 105.914089,152.856312 C109.694755,159.328324 110.412442,168.053458 111.847815,185.503724 L125.174733,347.523048 C126.770174,366.919305 127.567895,376.617433 124.208552,384.267182 C121.256978,390.988377 116.148973,396.533793 109.692365,400.026424 C102.343757,404.001573 92.6128755,404.001573 73.1511132,404.001573 L56.6692663,404.001573 C37.2075041,404.001573 27.476623,404.001573 20.1280151,400.026424 C13.6714072,396.533793 8.56340221,390.988378 5.61182816,384.267182 C2.25248522,376.617433 3.05020574,366.919305 4.64564677,347.523049 L17.9725628,185.503724 C19.4079362,168.053458 20.1256229,159.328325 23.9062886,152.856312 C27.9992331,145.849719 34.5298505,140.596438 42.2507218,138.099902 C47.2017916,136.498978 53.1045908,136.498978 64.910189,136.498978 Z" id="Mask"></path>
                                <ellipse id="Oval-2" cx="65.4602763" cy="53.3904356" rx="53.3583765" ry="53.3904356"></ellipse>
                            </g>
                        </g>
                    </g>
                </g>
            </g>
        </g>
    </g>
</svg>